<svg width="74" height="99" viewBox="0 0 74 99" fill="none" xmlns="http://www.w3.org/2000/svg">
<g clip-path="url(#clip0_273_164)">
<path d="M74 53.5649V0H4.09931e-06V53.5934C4.09931e-06 54.3793 -0.0574381 73.2106 13.4271 84.3693L13.3984 84.3407C13.8292 84.7122 23.9103 93.5135 36.4328 98.8857L36.6769 98.9857H37.3518L37.6103 98.8571C49.6732 93.2992 60.659 84.455 60.7739 84.3693C74.2729 73.182 74.0144 54.3507 74 53.5506V53.5649Z" fill="#8C0A28"/>
<path d="M2.71417 2.729V3.25765H71.4438V2.729H2.71417Z" fill="#DFD4C7"/>
<path d="M2.71417 17.374V17.8884H71.4438V17.374H2.71417Z" fill="#DFD4C7"/>
<path d="M2.57056 26.1038V26.6324H71.3002V26.1038H2.57056Z" fill="#DFD4C7"/>
<path d="M15.5238 15.1307C15.1648 14.845 14.8057 14.5878 14.059 13.802C14.059 13.802 10.8853 10.3015 10.397 9.77283C10.5119 9.62995 14.0877 5.28647 14.0877 5.27218L14.3031 5.05786H12.508L8.50145 10.0014V5.05786H6.69202V15.4879H8.50145V10.1443L12.6947 14.7878C13.0394 15.245 13.6713 15.4879 14.5472 15.4879H16.0407L15.6817 15.2308L15.5381 15.1307H15.5238Z" fill="#DFD4C7"/>
<path d="M24.1258 4.75794C22.5318 4.75794 21.1531 5.28659 20.0474 6.34388C18.9416 7.40118 18.3672 8.71565 18.3672 10.2159C18.3672 11.8018 18.9272 13.1449 20.033 14.1879C21.1101 15.2166 22.4312 15.731 23.9822 15.731C25.5331 15.731 26.883 15.2023 27.9744 14.1307C29.0658 13.0734 29.6402 11.7304 29.6402 10.1444C29.6402 8.68708 29.1233 7.42975 28.1037 6.38675C27.041 5.31516 25.7054 4.75794 24.1401 4.74365M24.0683 14.3593C22.9769 14.3593 22.0579 13.9021 21.3398 13.002C20.6649 12.1733 20.3202 11.1732 20.3202 10.0587C20.3202 8.94426 20.6649 7.94411 21.3398 7.20115C22.0148 6.45819 22.9195 6.0867 24.0396 6.0867C25.1597 6.0867 26.0501 6.52962 26.7538 7.42975C27.4 8.24416 27.7159 9.25859 27.7159 10.4302C27.7159 11.6018 27.3856 12.5162 26.725 13.2449C26.0501 13.9736 25.1597 14.3593 24.0683 14.3593Z" fill="#DFD4C7"/>
<path d="M49.4865 10.5015C49.7019 10.5015 52.8612 10.5015 52.8612 10.5015V9.12989C52.8612 9.12989 49.7019 9.12989 49.4865 9.12989V6.4295C50.2189 6.41521 53.608 6.4295 53.6511 6.4295H53.766V5.0293H47.6627V5.1436V15.488H54.4122V14.0163C54.4122 14.0163 49.7163 14.0163 49.5009 14.0163V10.5015H49.4865Z" fill="#DFD4C7"/>
<path d="M64.1343 5.0293H62.4542L58.1603 15.488H59.7831C59.7831 15.488 61.1761 11.8017 61.2191 11.6445H65.0103C65.0678 11.7874 66.4751 15.488 66.4751 15.488H68.4856L64.1918 5.0293H64.12M64.4215 10.2729H61.7218C61.8223 10.0014 62.8993 7.30105 63.086 6.84384C63.2583 7.30105 64.321 10.0157 64.4215 10.2729Z" fill="#DFD4C7"/>
<path d="M41.3297 13.1306C41.3297 13.1306 39.5921 10.9588 39.1469 10.4159C39.5059 10.2873 40.1378 10.0016 40.6261 9.50149C41.1574 8.95855 41.4159 8.32989 41.4159 7.65836C41.4159 6.88682 41.1287 6.25816 40.5399 5.78667C39.9368 5.30088 39.1038 5.0437 38.0699 5.0437H34.5803V15.5024H36.4471V15.3452C36.4041 15.0023 36.3897 14.4593 36.3897 13.2163V6.3296C38.0986 6.31531 38.7879 6.52963 39.0464 6.71537C39.4054 6.97255 39.5777 7.32975 39.5777 7.84411C39.5777 9.00142 38.7161 9.68723 36.9785 9.94441L36.7774 9.97298L40.4537 14.6594C40.8846 15.2023 41.5308 15.4738 42.3493 15.4738H43.8428L43.5269 15.2595C42.7801 14.7451 41.9616 13.9593 41.2866 13.102L41.3297 13.1306Z" fill="#DFD4C7"/>
<path d="M34.7239 22.3031H36.3323V21.6459C36.3323 21.6459 34.8244 21.6459 34.7239 21.6459V20.36C35.0685 20.36 36.6913 20.36 36.7056 20.36H36.7631V19.6885H33.8622V19.7456V24.6749H37.0646V23.9748C37.0646 23.9748 34.8388 23.9748 34.7382 23.9748V22.3031H34.7239Z" fill="#DFD4C7"/>
<path d="M10.7992 19.6885H10.196V22.7603C10.196 23.6748 9.98061 24.1748 8.86049 24.1748H8.73124C7.98449 24.1748 7.59676 23.7033 7.59676 22.7603V19.6885H6.72076V22.7603C6.72076 23.1318 6.72076 23.389 6.76385 23.5462C6.82129 23.8319 6.93617 24.0748 7.1085 24.2606C7.43879 24.6178 7.89833 24.7892 8.50147 24.7892H9.06154C9.65032 24.7892 10.1242 24.6035 10.4545 24.2606C10.6268 24.0605 10.7561 23.8176 10.7992 23.5462C10.8279 23.389 10.8422 23.1318 10.8422 22.7603V19.6885H10.7848H10.7992Z" fill="#DFD4C7"/>
<path d="M18.3384 19.6885V19.7456C18.3384 19.7456 18.3384 23.0604 18.3384 23.3461C18.1518 23.1175 15.4376 19.6885 15.4376 19.6885H14.6909V24.6749H15.3514C15.3514 24.6749 15.3514 21.2316 15.3514 20.9458C15.5381 21.1744 18.2954 24.6749 18.2954 24.6749H19.0134V19.6885H18.3528H18.3384Z" fill="#DFD4C7"/>
<path d="M22.7041 19.6885V24.6892H23.5657V19.6885H23.5083H22.7041Z" fill="#DFD4C7"/>
<path d="M54.0676 24.6892H54.9292V23.589V20.7886V19.7456V19.6885H54.8718H54.0676V20.7886V23.589V24.6892Z" fill="#DFD4C7"/>
<path d="M30.2434 19.6885C30.2434 19.6885 28.9079 23.3319 28.8073 23.6033C28.7068 23.3319 27.4 19.6885 27.4 19.6885H26.4091L28.276 24.6892H29.0658L31.0045 19.6885H30.2434Z" fill="#DFD4C7"/>
<path d="M49.8312 22.1604L49.1562 21.8318L48.5818 21.546C48.1653 21.3317 47.9499 21.0888 47.9499 20.8317C47.9499 20.6173 48.0504 20.4602 48.2515 20.3602C48.4095 20.2744 48.6249 20.2316 48.8834 20.2459C49.3285 20.2459 49.7737 20.3887 50.0035 20.5745L50.0896 20.6459V19.7601H50.0609C49.7019 19.6458 49.3285 19.5886 48.9264 19.5886C48.4095 19.5886 47.9643 19.6886 47.6196 19.8887C47.2032 20.1316 47.0021 20.4745 47.0021 20.9317C47.0021 21.3889 47.2319 21.7747 47.6914 22.0747L47.9356 22.2033L48.9408 22.6891C49.3573 22.9177 49.5727 23.1606 49.5727 23.4606C49.5727 23.6749 49.4578 23.8607 49.228 23.9893C49.027 24.1178 48.7972 24.175 48.5674 24.175C48.0361 24.175 47.5191 24.0321 47.0596 23.7749L46.959 23.7178L47.0883 24.5893H47.117C47.5191 24.7465 47.9786 24.8322 48.4669 24.8322C49.07 24.8322 49.6014 24.6751 49.9891 24.375C50.3481 24.0893 50.5205 23.7035 50.5205 23.2463C50.5205 22.8462 50.2907 22.489 49.8312 22.2033V22.1604Z" fill="#DFD4C7"/>
<path d="M58.2178 19.6743V20.3316C58.2178 20.3316 59.5102 20.3316 59.6107 20.3316V24.675H60.4724C60.4724 24.675 60.4724 20.4459 60.4724 20.3316H61.9084V19.6743H58.2178Z" fill="#DFD4C7"/>
<path d="M67.5665 19.6743C67.5665 19.6743 66.2884 21.6317 66.2022 21.7746C66.1161 21.646 64.8523 19.6743 64.8523 19.6743H63.8615C63.8615 19.6743 65.6422 22.4747 65.6709 22.5033C65.6709 22.5319 65.6709 24.675 65.6709 24.675H66.5325C66.5325 24.675 66.5325 22.5319 66.5325 22.5033C66.5469 22.4747 68.4137 19.6886 68.4137 19.6886H67.5808L67.5665 19.6743Z" fill="#DFD4C7"/>
<path d="M43.57 23.5463C43.57 23.5463 42.7371 22.5176 42.536 22.2461C42.7083 22.189 43.0099 22.0461 43.2397 21.8175C43.4838 21.5603 43.6131 21.2603 43.6131 20.9316C43.6131 20.5602 43.4695 20.2744 43.1966 20.0315C42.9094 19.8029 42.5073 19.6743 42.019 19.6743H40.3532V24.6607H41.2436V24.5893C41.2148 24.4179 41.2148 24.175 41.2148 23.5749V20.303C42.0334 20.303 42.3493 20.403 42.4786 20.4887C42.6509 20.603 42.7371 20.7888 42.7371 21.0174C42.7371 21.5603 42.335 21.9032 41.5021 22.0175H41.4015L43.1535 24.2607C43.3689 24.5179 43.6561 24.6607 44.0582 24.6607H44.7763L44.6183 24.5607C44.2593 24.3178 43.8715 23.9464 43.5556 23.532L43.57 23.5463Z" fill="#DFD4C7"/>
<path d="M71.4151 53.5935V53.7078C71.4151 55.2937 71.1279 72.4677 59.1368 82.4119C59.0363 82.4834 48.5675 90.8989 36.9928 96.3282C25.0592 91.0989 15.2079 82.512 15.1073 82.4262L15.0786 82.3977C2.71416 72.1819 2.57056 54.2793 2.57056 53.6221V29.4043H71.4151V53.5935Z" fill="#DFD4C7"/>
<path d="M31.2055 87.7554H32.1533C32.2825 87.7554 32.2395 87.6411 32.2395 87.6411C31.8517 85.9552 32.0528 84.6264 32.1246 84.2264C32.1246 84.2264 32.1677 84.1121 32.0241 84.1121H31.0906C30.9614 84.1121 31.0045 84.2121 31.0045 84.2121C31.3204 85.5123 31.2055 87.1554 31.1193 87.6269C31.1193 87.6269 31.0619 87.7554 31.2055 87.7554Z" fill="#8C0A28"/>
<path d="M34.7095 84.0122C33.2016 84.1551 33.3021 85.9125 33.3021 85.9125C33.3883 87.4984 35.0541 87.7985 35.0541 87.7985C34.5946 89.0129 33.3883 89.3844 33.3883 89.3844C33.1011 89.4987 33.3165 89.5702 33.3165 89.5702C33.6755 89.6845 34.2069 89.4844 34.2069 89.4844C36.4184 88.4986 36.4758 86.1982 36.4758 86.1982C36.5189 83.855 34.7238 84.0265 34.7238 84.0265M35.2552 87.2555C34.5371 87.2698 34.3648 86.1554 34.3648 86.1554C34.1781 84.9266 34.6664 84.8552 34.6664 84.8552C35.169 84.698 35.3988 85.741 35.3988 85.741C35.6429 86.9412 35.2695 87.2412 35.2695 87.2412L35.2552 87.2555Z" fill="#8C0A28"/>
<path d="M40.2814 85.4266C40.2814 85.4266 40.0803 83.9692 38.7017 83.9835C38.7017 83.9835 37.3375 83.9549 37.28 85.8266C37.28 85.8266 37.2226 87.7983 38.9458 87.7126C38.9458 87.7126 40.626 87.6126 40.267 85.4266M38.9602 87.084C38.314 87.3268 38.2422 85.9981 38.2422 85.9981C38.1704 84.7408 38.6873 84.6122 38.6873 84.6122C39.2043 84.4836 39.3479 85.4123 39.3479 85.4123C39.5921 86.8411 38.9602 87.084 38.9602 87.084Z" fill="#8C0A28"/>
<path d="M40.6978 88.227C42.1482 88.5127 42.536 87.484 42.536 87.484C42.9955 86.0409 41.1717 85.9695 41.1717 85.9695L41.4589 84.0978C41.4589 84.0978 43.2827 84.1835 43.771 83.9406C43.771 83.9406 43.8859 83.8692 43.8141 84.1407C43.8141 84.1407 43.7135 84.755 43.1104 84.8122L42.2057 84.8836L42.1195 85.4123C42.1195 85.4123 43.6705 85.3837 43.6417 87.0554C43.6417 87.0554 43.5843 88.3413 42.0621 88.6699C42.0621 88.6699 41.344 88.827 40.5255 88.4984C40.5255 88.4984 40.4106 88.4413 40.468 88.3413C40.468 88.3413 40.5255 88.227 40.6547 88.2412L40.6978 88.227Z" fill="#8C0A28"/>
<path d="M35.3413 53.2507C35.4562 53.1078 35.5998 53.2078 35.7291 53.2507C35.844 53.2792 35.844 53.5078 35.9158 53.6221C35.9588 53.7079 36.1742 53.9365 36.203 54.0079C36.3897 54.8509 36.203 55.951 35.8296 56.5797C35.7147 56.7797 35.5424 56.8797 35.4275 56.8797C35.2695 56.894 35.2121 56.6654 35.1546 56.5797C34.9105 56.2368 35.0972 55.4367 35.1546 55.0652C35.2121 54.5794 34.8387 53.8079 35.0828 53.4507L35.3557 53.2507H35.3413Z" fill="#8C0A28"/>
<path d="M23.8529 54.1365C24.054 54.0793 24.3555 54.1793 24.4704 54.1365L24.7433 54.0222C25.0592 53.8221 25.3751 53.8793 25.7054 53.9079C25.8634 53.9222 26.3517 54.1365 26.5096 54.1365C26.7681 54.165 27.9744 54.2936 29.2525 54.4794C29.2525 54.4794 29.9418 54.3937 29.7551 54.1936C29.87 54.3222 29.7408 54.0936 29.4679 53.9936L29.3817 53.8936C29.3817 53.8936 29.152 53.6936 29.5684 53.565C29.4105 53.6078 29.8413 53.5078 29.9274 53.4078C30.0998 53.2363 29.8556 53.0363 29.8556 53.0363C29.2525 52.8363 28.5632 53.2221 27.6585 53.122C27.2133 53.0792 26.5671 52.8363 25.9352 52.9363C25.2459 53.0649 24.2263 53.4507 23.7524 53.8221C23.7524 53.8221 23.5226 54.2222 23.8529 54.1222V54.1365Z" fill="#8C0A28"/>
<path d="M31.5358 49.1927C32.1533 49.1499 32.1821 49.7928 32.1964 49.7357C32.1246 50.1929 30.9901 50.2357 30.7316 50.5929C29.9418 51.6074 30.2721 52.5932 28.4052 52.6932C28.4052 52.6932 28.0318 52.6075 28.1755 52.4503C28.2903 52.3217 28.7499 52.2074 28.9078 52.1074C29.152 51.9646 29.1232 51.5788 29.2812 51.3502C29.3099 51.293 29.5253 51.2216 29.5828 51.1644C30.0998 50.4643 30.1572 49.7499 31.0906 49.3356C31.1337 49.307 31.464 49.2213 31.5358 49.207V49.1927Z" fill="#8C0A28"/>
<path d="M37.5098 46.4352C37.7252 46.3209 37.9262 46.4352 38.0698 46.5638C38.156 46.6209 38.8309 48.2497 38.8597 48.4069C38.9458 48.9927 39.0176 50.3643 38.8597 50.7929C38.6299 51.4073 38.0698 51.8788 38.1847 52.9504C38.2565 53.5934 38.5294 54.0791 38.8022 54.6364C38.8309 54.7221 39.1182 55.265 39.1325 55.3793C39.233 55.9651 38.9171 56.7081 38.874 57.1796C38.7304 58.3512 39.2043 59.4228 39.0176 60.5372C38.9315 61.023 38.7879 61.2659 38.515 61.5659L38.2996 61.7374C38.2422 61.8517 38.1416 61.8946 38.0268 61.9803L37.8975 62.1089C37.6965 62.1517 37.6821 62.2803 37.5959 62.2803C37.0933 62.3946 36.9928 62.0946 37.0215 62.166C36.5045 60.7372 37.3662 59.0513 36.921 57.6797C36.8205 57.3653 36.4471 57.0367 36.3897 56.7081C36.2173 55.465 37.3805 54.8078 37.3662 53.9791C37.3662 53.379 36.5763 52.6075 36.404 52.0217C36.1742 51.3359 36.0306 50.0214 36.3322 49.1641C36.404 48.9498 36.6769 48.6069 36.7487 48.3212C36.8923 47.7925 37.1077 47.3496 37.1938 46.9924C37.2226 46.8781 37.2944 46.7209 37.3518 46.6209C37.3662 46.5923 37.4811 46.4638 37.5098 46.4352Z" fill="#8C0A28"/>
<path d="M52.3874 43.4778C53.2346 43.3778 53.608 43.7064 53.2203 44.4208L53.0479 44.5779C53.0479 44.5779 52.7607 44.8923 52.7033 44.9351C52.3012 45.2352 51.9135 45.4209 51.5975 45.7924C51.497 45.921 51.4108 46.2496 51.2672 46.3496C51.0518 46.5068 50.2476 46.8497 50.0466 46.8926C49.027 47.0497 47.634 46.0496 47.4904 45.4638C47.3612 44.9637 47.4904 44.4779 47.7058 44.3636C48.0505 44.1922 48.9552 44.2779 49.2711 44.2493C50.061 44.1922 50.5492 44.2493 51.1524 44.0207C51.5257 43.9064 51.9422 43.5206 52.373 43.4778H52.3874Z" fill="#8C0A28"/>
<path d="M48.0504 43.1348C48.0504 43.1348 48.5243 43.3348 48.9552 43.2348C49.2567 43.1634 49.8168 42.9062 50.104 42.849C50.2763 42.8062 50.5205 42.8919 50.6784 42.849C51.138 42.7061 51.9996 41.806 50.98 41.706C50.6066 41.6774 49.4865 42.0918 49.1418 42.1918C48.7972 42.2775 48.5818 42.3347 48.2946 42.4918C48.2228 42.5347 47.8207 42.8633 47.8638 42.8062C47.8638 42.8062 47.6053 43.0205 48.0504 43.1491V43.1348Z" fill="#8C0A28"/>
<path d="M40.7122 44.8494C40.4106 44.8065 40.4106 44.3064 39.6639 44.4636C39.1325 44.5779 38.9889 45.3494 38.2278 45.3209L37.8401 45.1351C37.5098 45.0494 37.2657 45.178 36.9784 45.0208C35.6285 44.3922 38.0268 41.1631 38.8022 41.206C38.8453 41.206 39.2474 41.3489 39.2905 41.3917C39.5346 41.606 39.5346 42.5062 39.7644 42.8205C39.9367 43.0491 40.2096 43.0348 40.4393 43.2063C40.6835 43.392 41.143 44.0207 41.2004 44.3493C41.2004 44.3493 41.3297 44.8922 40.7265 44.8208L40.7122 44.8494Z" fill="#8C0A28"/>
<path d="M51.8414 41.6474C51.8414 41.6474 51.8414 41.6198 51.8553 41.606C51.8274 41.6474 51.8274 41.6612 51.8414 41.6474Z" fill="#8C0A28"/>
<path d="M34.8962 45.0923C34.3792 45.378 33.2303 45.8352 33.0006 46.3353C32.8713 46.5925 32.8713 46.8354 32.7564 47.1497C32.7421 47.1783 32.5985 47.2354 32.5554 47.3354C31.9953 47.3354 31.5071 47.3069 31.0188 47.4355C30.6454 47.5498 30.0997 47.9355 29.6833 48.007C28.836 48.1498 28.1754 47.7784 27.3856 47.907C27.0266 47.9641 26.7968 48.3356 26.5096 48.4785C26.2655 48.5928 26.1649 48.5928 25.9639 48.7785L25.7916 48.9785C25.7628 49.05 25.6767 49.25 25.6192 49.3357C25.4469 49.5929 25.3751 49.8644 25.332 50.1358C25.2889 50.4073 25.131 51.0646 24.9874 51.3217C24.9156 51.4503 24.5565 51.7504 24.4991 51.8647C24.4704 51.9504 24.3842 52.0218 24.4991 52.1504C24.3699 52.0218 24.3986 52.279 25.0879 52.3219C25.849 52.3362 27.5005 51.8361 27.5005 51.8361L28.2903 51.4075C28.4483 51.2932 29.0658 50.8217 29.195 50.6645C29.7694 49.9501 31.3204 47.3497 32.5267 48.0355L32.7421 48.1927C33.0293 48.6785 32.6703 50.0501 32.4549 50.3645L32.182 50.6931C31.9666 50.7645 31.823 51.3217 31.7799 51.5789C31.7225 51.9933 31.8517 52.3647 31.8804 52.5933C31.9379 53.0934 31.9953 53.7078 31.6937 54.3222C31.6219 54.4365 31.4496 54.6508 31.5071 54.9794C31.5645 55.3509 32.0958 55.6224 32.1676 55.9367C32.2107 56.0939 32.3543 56.1081 32.1676 56.4082C32.0671 56.5653 31.6219 56.8368 31.5071 56.9797C31.3347 57.1511 31.4783 57.4226 31.5932 57.5369C31.9235 57.837 32.1964 57.8655 32.4549 58.2084C32.8282 58.6799 32.7995 59.08 33.6037 59.1657C34.2356 59.2229 35.1403 59.2657 34.7526 58.3942L34.5659 58.0799C34.3361 57.5226 33.9484 57.0226 33.8909 56.4082C33.8191 55.6224 34.451 55.2223 34.1781 54.5936C33.9627 54.1078 33.0149 54.165 32.9288 53.5363C32.8857 53.1791 33.2447 52.4362 33.3165 52.1076C33.3883 51.6504 33.2734 51.3646 33.417 50.9645C33.5175 50.6788 33.934 50.3645 33.9771 50.0215C34.0632 49.3929 33.575 48.9928 33.7904 48.307C33.8909 47.9498 34.451 47.9927 34.652 47.7355C34.9105 47.3783 34.7669 46.8925 34.9392 46.3925C34.9536 46.3353 35.0972 46.0353 35.1259 45.9924C35.1116 45.9638 35.2408 45.3494 35.2408 45.3494C35.1546 44.9637 34.9105 45.1208 34.8818 45.1066M28.8073 50.1358C28.2759 50.2502 28.2185 49.1214 26.926 49.5643C26.8542 49.5929 26.4952 49.9215 26.4665 49.9787C26.3085 50.3216 26.3947 51.1789 26.2224 51.2646C26.2224 51.2646 25.7198 51.3932 25.8203 50.7502C25.9782 49.7501 26.1649 49.5643 26.6819 49.1357C26.7537 49.0786 26.9404 48.9357 27.0409 48.9214C27.6441 48.7785 28.7786 49.0214 28.9796 49.3214C29.1519 49.5786 28.7786 50.1358 28.8073 50.1358Z" fill="#8C0A28"/>
<path d="M63.9332 42.5776C63.8471 42.1061 62.569 42.1489 62.052 41.5203C61.8653 41.2774 62.0089 41.1345 62.052 40.9488C62.1956 40.4058 63.3588 40.7344 63.6317 40.2487C63.7466 40.0486 63.7753 39.4485 63.7035 39.3628C62.9711 38.477 61.4345 38.8913 60.3431 38.4627C59.8118 38.2484 59.1655 37.8197 58.6198 37.6054C57.9305 37.3482 57.3992 37.3054 56.7099 37.0339C56.5519 36.9625 56.2503 36.7482 56.078 36.6767C55.3025 36.3767 54.6994 36.3052 53.9239 35.9766C53.8378 35.948 53.5936 35.8052 53.4931 35.7766C53.1915 35.648 53.091 35.6194 52.7607 35.5051C51.5688 35.0765 50.0609 34.705 48.352 34.805C47.5909 34.8479 46.7293 34.705 45.5661 35.0336C45.164 35.1336 44.6039 35.4765 44.2305 35.5908C43.9577 35.6766 43.7423 35.7194 43.4982 35.8194C43.1679 35.948 42.8663 36.1481 42.4068 36.2624C41.0856 36.5624 39.3336 36.2338 37.9981 36.4481C36.8349 36.6339 36.1743 37.3625 35.2121 37.6911C34.9249 37.7912 34.7957 37.7626 34.5228 37.8626C34.3505 37.9198 33.9627 38.0198 33.8335 38.0912C33.4314 38.2912 33.1729 38.3627 32.7277 38.5484C32.498 38.6484 32.2395 38.8485 32.0241 38.9628C31.7081 39.1199 31.6794 39.1628 31.4209 39.3628L31.2055 39.52C31.2055 39.52 30.7316 39.9343 30.6742 39.9915C30.4875 40.1915 30.3152 40.4487 30.1428 40.6487C29.6546 41.2059 28.9222 41.9203 28.319 42.3632C28.1036 42.5204 27.9457 42.4918 27.7446 42.6633C27.5148 42.8347 27.3138 43.0205 27.0984 43.1919C26.5958 43.5491 26.0932 43.792 25.5475 44.0921L25.1884 44.3207C24.7145 44.6207 24.7433 44.7493 24.255 45.0636C23.9391 45.278 23.7955 45.6066 23.5083 45.8495C23.3216 45.9923 23.0918 46.4638 22.9625 46.6639C22.3594 47.5354 22.1296 48.8356 21.6988 49.9215C21.5696 50.2358 20.5213 51.736 20.2628 51.8218L20.0761 52.0075C19.9325 52.1361 19.9325 52.1647 19.7889 52.3075C19.4729 52.579 19.1714 52.7362 18.9272 53.0791C18.7262 53.3363 18.6113 53.6506 18.439 53.9363C18.1661 54.3793 17.7209 54.8793 17.4912 55.3651C17.3906 55.5509 17.3332 55.7223 17.2614 55.8938C17.2327 55.9223 17.2183 55.9509 17.2183 55.9509C17.0891 56.0938 16.888 56.7082 16.888 56.7082C16.6726 57.194 16.17 57.4797 15.4951 58.4227C14.7196 58.4799 12.0198 57.794 10.1816 56.9368C10.5981 57.394 12.6517 58.7656 15.0642 59.0371C14.9063 59.2657 14.8919 59.5086 14.6047 59.58C13.6425 59.8086 11.9624 59.2943 9.70774 58.5084C9.83699 58.8228 11.8187 59.9801 14.7483 60.1515C14.3175 60.6516 10.2965 60.5373 7.15156 59.68C7.03668 60.0087 11.0864 60.9088 13.3122 60.8802C12.9245 61.0659 11.9336 61.2946 11.2874 61.5232C10.2678 61.4089 8.86047 61.2374 8.58762 61.1374C8.64506 61.3374 9.6503 61.6089 10.4832 61.8089C9.67902 62.0947 8.50146 62.2518 8.04192 62.3518C8.37221 62.4376 9.66466 62.2375 11.0002 61.9089C12.1778 62.1375 13.9872 62.3661 14.9781 62.3233C14.7339 62.4519 13.7861 63.0519 13.0538 63.4806C11.1582 63.652 9.1046 63.8092 8.67378 63.8664C8.91791 63.9092 10.5837 63.9235 12.3501 63.8806C11.273 64.5093 10.1242 65.1665 9.56414 65.4094C10.3827 65.1951 11.8475 64.6379 13.341 63.8521C14.8201 63.7949 16.2131 63.6806 16.8019 63.4663C16.6008 63.8949 15.4089 65.9524 14.2888 66.4382C14.777 66.3524 16.3136 65.9238 17.2614 63.5949C17.5917 63.7378 17.9794 63.8235 18.4102 63.8521C18.6544 64.2235 19.2432 65.1665 20.3489 65.2237C20.5787 65.8666 22.6323 69.1957 25.5187 67.8955C24.6858 67.4383 24.1832 66.9811 23.7667 65.6523C25.0448 65.5666 28.4339 67.424 29.4535 71.4103C28.6493 71.1388 27.6441 70.6816 27.5436 70.2816C27.3282 71.2103 27.1846 72.3962 29.2381 74.4536C29.2812 74.8965 29.2668 75.4252 29.3674 75.9252C29.712 76.2824 30.0997 76.5396 30.4588 76.8396C30.4875 77.4112 30.4013 78.2113 31.9379 78.6685C32.4549 79.0971 34.1351 79.5543 34.3792 79.8401C34.8818 79.9972 35.6142 80.0258 36.1599 79.9972C36.1599 79.9972 36.8779 79.8687 37.079 79.5972C37.438 79.5829 37.9406 79.5686 40.1521 77.2111C40.6117 76.6539 40.1521 73.6106 40.267 72.8819C40.4824 72.339 40.583 71.8532 40.8845 71.1817C40.8845 71.1817 41.1861 70.5245 41.7462 70.2673C41.7892 70.253 41.818 70.253 41.8611 70.2387C43.1391 69.9529 44.805 71.1388 45.5948 71.4674C45.882 71.5817 46.0256 71.5246 46.2554 71.6675C46.3703 71.7246 46.5282 71.9818 46.6431 72.0532C46.9303 72.2104 47.2032 72.1675 47.5048 72.339C47.9643 72.5962 48.8977 73.9392 49.7019 73.7821C49.9604 73.7249 50.1471 73.1534 50.3769 73.0105C50.7502 72.7819 51.2816 72.7962 51.6262 72.539C52.014 72.239 51.856 71.8961 51.9135 71.4817C51.9135 71.4674 52.0858 71.2674 52.1145 71.196C52.3012 71.1817 52.7176 71.196 52.9761 71.1103C53.0049 71.1103 53.1197 70.9674 53.1628 70.9245C53.3208 70.7531 53.2059 70.5673 53.1628 70.4387C53.1054 70.2816 52.7176 70.1101 52.5884 69.9672C52.3012 69.6815 51.8129 69.2671 51.6262 68.9242C51.5401 68.7528 51.655 68.7099 51.5257 68.5385C51.3965 68.3384 51.0662 68.1384 50.9657 67.8812C50.5923 67.0668 50.7359 65.238 50.5779 64.9808C50.42 64.7379 50.2333 64.7665 50.0897 64.5379C49.7737 64.0378 50.1615 62.409 50.1902 61.7803C50.2189 61.266 49.7163 61.5803 49.7163 61.5803C49.2998 62.609 49.3429 63.0662 49.2424 64.5379C49.228 64.6665 49.0413 65.4523 49.0413 65.5952C49.0413 66.1095 49.3429 66.9811 49.1275 67.5955C49.0557 67.7955 48.6392 68.1813 48.0792 68.167C47.8638 68.167 46.7867 67.8955 46.5426 67.7812C46.4995 67.7526 46.2697 67.4954 46.2554 67.4954C45.724 67.0668 45.6092 67.4669 45.5948 67.6812C45.5804 67.8955 45.6666 67.9384 45.7097 68.067C45.724 68.1955 45.9395 68.6528 45.9251 68.6813C45.9251 68.7242 45.724 69.2243 44.7332 68.6385C43.9864 68.1813 43.2397 66.9382 43.1966 66.7239C43.0961 66.2524 43.2397 65.8809 43.3402 65.7238C43.7136 65.3809 44.1587 65.8524 44.5321 66.0524C44.6326 66.1095 44.8624 66.2667 44.9773 66.281C45.1927 66.3238 45.5517 66.2381 45.5948 66.2381C47.0452 66.1524 48.5531 66.681 48.8116 65.7095C48.9695 65.0951 48.3664 64.7665 48.2659 64.5236C48.1366 64.2093 48.1941 64.195 48.1223 63.8521C48.1223 63.8235 48.0074 63.6092 47.9787 63.5806C47.835 63.3234 47.9356 63.1091 47.792 62.8233C47.6484 62.509 47.2175 62.3233 47.0309 62.0518C46.7867 61.6946 46.7867 61.2517 46.4564 60.9945C45.9682 60.5944 44.0008 60.0087 43.771 59.5514C43.3976 58.8371 43.8572 57.5083 43.6848 56.6082C43.5843 56.0795 43.412 55.7938 43.0817 55.4651C42.9525 55.3365 42.895 55.1508 42.9381 54.9794C43.0243 54.665 43.1966 54.7507 43.2827 54.0364C43.3402 53.6506 43.254 53.2077 43.2827 52.7933C43.2827 52.7219 43.4694 52.1075 43.4838 52.0361C43.57 50.9645 43.4264 49.85 43.1966 49.0928C43.0817 48.7213 42.737 48.3927 42.6222 48.0355C42.5216 47.7355 42.6365 47.564 42.5216 47.264C42.4211 47.0068 42.0908 46.821 41.9616 46.6067C41.7031 46.2209 41.7749 45.578 41.3728 45.3637C41.0856 45.2065 40.9707 45.4208 40.9994 45.3637C40.8989 45.7066 40.9276 46.0495 41.0999 46.5067C41.1717 46.7067 41.5308 46.9782 41.5882 47.1782C41.66 47.5354 41.5308 47.9498 41.5882 48.3213L41.7749 48.707C41.9185 49.6643 41.4015 50.9359 41.0138 51.4646C40.7409 51.8218 39.9224 52.2647 39.8649 52.7933C39.8219 53.1219 39.9655 53.1362 40.0373 53.2648C40.1665 53.4363 40.5542 53.6649 40.6117 53.8363C40.6548 53.9649 40.7122 53.9363 40.7553 54.0649L40.7984 54.3221C40.8702 54.9936 39.9942 55.1365 40.4106 55.9366C40.5255 56.1652 40.942 56.1652 41.1717 56.3081C41.6026 56.5796 42.4355 57.3511 42.5073 58.0227C42.5504 58.3084 42.5073 59.8515 42.4211 60.0372C42.2201 60.4659 41.143 60.623 41.2723 61.466C41.4015 62.3804 43.8428 62.1232 44.5178 62.609C44.848 62.8376 44.9055 63.3234 45.006 63.7663C45.0635 63.9949 44.8193 64.0807 44.7188 64.1378C44.4603 64.295 44.2736 64.1664 43.9577 64.2378C43.1679 64.395 41.9041 64.7522 41.5738 65.3809C41.1574 66.1095 41.6456 67.1097 41.4733 67.9527C41.301 68.7099 40.7266 69.6386 40.3101 70.253C40.0516 70.6245 39.7357 70.9959 39.6064 71.5103C39.3192 72.639 39.5203 73.9678 39.4341 75.2823H39.4198C39.4198 75.2823 39.4772 75.9824 39.0033 76.4825C38.472 77.054 36.6482 78.7542 35.3557 78.7542C34.8818 78.7399 34.6808 78.5828 34.1494 78.197C33.8191 78.1684 33.058 77.9827 32.6272 77.5398C32.4836 77.2969 31.0619 75.8538 31.9523 75.4394C32.7995 75.0537 34.1638 75.8967 34.7957 76.2967C35.0541 76.2967 36.9067 76.3967 38.8597 73.8249C38.7735 72.4819 38.6586 70.7673 38.5007 70.453C38.2996 69.7958 37.1795 68.6385 36.9497 67.9384C36.8061 67.3669 36.5333 66.2667 36.7056 65.4952C36.6338 64.6379 36.0881 64.4521 35.8583 63.752C35.8009 63.5806 35.7291 63.4377 35.686 63.3806C35.6142 63.1234 35.5711 62.9091 35.4132 62.6805C35.0685 62.1661 34.7382 62.0518 34.4223 61.5374C34.092 61.0088 34.1494 60.3516 33.6468 60.0087C33.374 59.8229 33.0006 59.8086 32.6847 59.6229C32.4549 59.4943 32.182 59.1657 31.9235 59.0514C31.622 58.9228 31.5358 58.8799 31.2342 58.737C31.0906 58.6656 30.8178 58.537 30.6885 58.4799C30.5593 58.4084 30.4157 58.4799 30.3008 58.3798C29.9274 58.0655 30.2003 57.7798 30.0136 57.2511C29.9992 57.1797 29.8556 57.1797 29.8125 57.0654C29.6546 57.0225 29.3961 56.7796 29.1807 56.9225C28.8935 57.1368 28.8073 57.0654 28.635 57.5083C28.5344 57.794 28.3334 58.637 28.1467 58.8513C27.9744 59.0514 27.759 59.3371 27.4861 59.5372C27.2276 59.6657 27.0122 59.6515 27.0122 59.6515L26.2942 59.7515L25.9352 60.2944C25.9352 60.2944 25.5474 60.2373 25.3464 60.2373C25.289 60.3658 24.8151 60.7373 24.6715 60.8659C24.0683 61.2231 23.6949 60.9659 23.6519 60.8373C23.6231 60.723 23.4364 60.4801 23.8385 60.2373C25.2459 59.8372 26.9691 57.9655 27.1128 57.5654C26.9404 57.8369 24.0252 59.4371 23.4939 59.6515C24.0683 58.2941 27.6297 56.2938 27.8595 56.0509C26.9404 56.1938 23.9103 58.0084 23.379 58.8228C22.8764 59.6372 22.2876 59.4086 21.7132 59.38C21.1675 59.3657 21.2106 59.9515 21.1962 60.2944C21.1962 60.6373 20.9233 61.3517 21.1531 61.4803C21.5265 61.7946 22.503 60.5087 22.8189 61.1945C22.9913 61.9661 20.9808 61.9375 20.9951 62.5662C20.8946 62.8948 22.862 63.0091 23.221 63.3663C22.5892 63.8235 21.0526 63.9664 20.5931 63.9949C20.3058 64.0235 20.0474 63.9949 19.9037 63.9949C19.6453 63.9521 19.315 63.7235 19.0278 63.2377C18.4677 62.2233 19.4155 61.5374 19.4298 61.2803C19.4586 61.0088 19.3293 61.1517 19.315 60.7373C19.3006 60.3087 19.7745 60.2373 19.9037 60.1515C20.033 60.0515 19.8607 59.9372 19.9037 59.5229C20.1479 58.5942 21.6701 57.5226 21.2824 57.2225C20.9233 57.0368 20.191 57.8512 19.9037 58.2084C18.8554 59.5514 17.6348 59.1228 17.2183 59.1514C16.2992 59.2085 16.4572 58.1941 17.1034 58.2655C17.8502 58.1084 17.7927 57.0939 18.3241 57.194C18.4964 57.9369 17.6635 58.0512 18.0512 58.2084C18.5826 58.4227 18.64 57.7226 18.798 57.4369C18.9559 57.1368 19.7027 56.5081 19.6165 56.351C19.4011 56.2795 18.8411 56.6653 18.5969 56.8653C17.9938 55.3651 19.516 54.2078 19.6022 53.7649C20.1048 52.9791 22.9051 51.9646 22.9625 50.7788L23.0344 50.7073C23.0344 50.7073 23.0918 50.6787 23.178 50.8073C23.1923 50.8788 23.2067 50.9645 23.2354 51.0359C23.2354 51.1359 23.2354 51.2217 23.2354 51.2217V51.1074C23.2641 51.2931 23.2641 51.4503 23.2641 51.4217V51.6074C23.2928 51.7075 23.4364 51.7646 23.4508 51.7789C23.5082 51.7789 23.6662 51.7217 23.8098 51.5503C23.8385 51.5217 23.9965 51.3645 23.9965 51.336C24.2694 51.1359 24.3124 51.1074 24.4991 50.8502C24.9874 50.1501 24.054 49.1357 24.3124 48.1927C24.4848 47.564 25.0735 46.821 25.0735 46.821C25.2315 46.4638 24.9874 46.4638 24.9874 46.4638C24.614 46.4067 24.3555 46.7925 24.413 46.7353C23.9391 47.1782 23.7955 47.3925 23.4508 47.9926C23.4508 47.9926 23.1636 48.2498 23.0774 47.8926C22.9051 47.3068 23.5801 46.1352 23.7955 45.9923C24.1832 45.7209 24.5853 45.6066 25.0879 45.4065C25.332 45.3065 25.7054 44.9065 25.9495 44.835C26.0644 44.7922 26.208 44.7636 26.3229 44.835C26.3229 44.835 26.5096 44.9779 26.4234 45.4065C26.4234 45.4065 26.2368 45.9209 26.2942 46.1209C26.3373 46.2495 26.3229 46.3638 26.6101 46.3638C27.2994 46.3638 28.836 46.2209 29.2956 45.9781C29.3961 45.9352 29.4966 45.7923 29.5971 45.7066C29.7407 45.5637 29.6977 45.3494 29.5971 45.3208L29.2956 45.2208C29.5253 45.1922 28.0031 45.1779 28.2472 45.1351C27.9744 45.1779 28.6063 44.435 28.5344 44.0778C28.5057 43.9063 28.2042 43.8349 28.1467 43.7063C28.118 43.6206 27.96 43.492 28.1467 43.4205L28.3621 43.3205C28.4339 43.2634 28.5201 43.1777 28.6206 43.1348C29.0945 42.9062 29.9705 43.0205 30.3439 43.1348C30.387 43.1491 31.0045 43.3205 31.2055 43.892C31.263 44.0492 31.306 44.2349 31.3922 44.3778C31.6794 44.7779 32.5267 44.9065 33.0149 44.4493C33.1155 44.3635 33.2304 44.1349 33.3022 44.0063C33.7904 42.8776 33.0724 42.1204 32.1389 41.806C31.7656 41.6774 31.1624 41.6346 30.7029 41.5203C30.3726 41.4345 30.5736 41.1488 30.6598 41.0774L30.8034 40.9488C30.9901 40.6773 31.5502 40.4344 31.7656 40.3772C32.2682 40.1915 32.7708 39.9915 33.4888 40.2915C33.5894 40.3344 33.8766 40.5487 33.9627 40.563C34.5084 40.6916 34.7095 40.7344 35.2121 40.4773C35.4132 40.3772 35.3844 40.3487 35.3988 40.2915C35.5711 39.7772 35.2265 39.4485 35.2265 39.4914C35.1259 38.8056 37.0933 39.6486 37.3949 39.2199C37.6821 38.8199 37.4954 38.0769 37.8688 37.7912C37.9119 37.7626 38.1417 37.6054 38.156 37.6054C38.515 37.534 38.8453 37.6769 39.1325 37.7912L39.4485 37.934C40.066 38.1912 40.6117 38.3198 40.942 38.8342C41.1574 39.1628 41.1143 39.6486 41.3154 39.9772C41.4015 40.1201 41.6169 40.2201 41.7174 40.363C41.8036 40.463 41.9759 40.5344 42.0908 40.6059C42.2631 40.7202 42.3349 40.763 42.5647 40.8345C42.737 40.9059 42.9812 41.1631 43.1391 41.2202C43.7279 41.4631 44.4316 41.4203 45.0491 41.406C45.4225 41.3917 45.6522 41.606 45.9969 41.506C46.1836 41.4488 46.1261 41.1202 46.0113 40.9916C45.7815 40.7059 45.6092 40.763 45.2358 40.563C45.0922 40.4773 44.9055 40.1772 44.7619 40.0915C44.3311 39.8057 43.6848 39.7629 43.4264 39.32C43.3833 39.2485 43.3402 39.1199 43.3258 39.0342L43.2109 38.8342C42.6796 37.7626 42.5073 37.1339 43.0243 36.9339C43.3402 36.8196 44.0295 36.8767 44.3742 36.7482C44.4603 36.7053 44.6039 36.491 44.6614 36.4624C45.4225 36.1052 46.8585 35.6909 47.634 36.0766C47.8638 36.1909 47.634 36.791 47.7202 37.0339C47.7776 37.1339 47.9499 37.3197 48.151 37.3768C49.8024 37.8197 51.4396 37.7483 52.6458 38.3055C53.3639 38.6484 53.9096 39.1771 54.5702 39.7343C55.1302 40.2344 54.4696 40.7773 55.0441 40.9488C54.6563 41.0059 54.3117 41.0488 54.2542 40.8345C54.2399 40.7773 54.1106 40.6059 54.0675 40.5487C53.6367 40.1486 53.1341 39.5057 52.531 39.3057C52.215 39.1914 52.0858 39.2914 51.7555 39.2057L51.3677 39.0771C50.9513 38.9628 50.9226 39.0056 50.5205 38.9199C50.3338 38.8913 49.9317 38.6627 49.745 38.6484C48.9265 38.5341 48.4669 38.8485 47.7345 38.6484C47.3899 38.5484 46.9447 38.0055 46.6718 37.8626C46.3272 37.6626 46.0113 37.6054 45.6235 37.4768C45.4656 37.434 45.3794 37.434 45.2645 37.4911C45.0491 37.6197 45.1209 37.8054 45.2358 37.9626C45.2932 38.0483 45.3507 38.1912 45.4225 38.2341C45.6953 38.4341 46.241 38.4341 46.3846 38.7056C46.8011 39.5343 46.1836 39.8343 46.0974 40.0772C46.0543 40.2344 45.9395 40.3487 46.0974 40.5487C46.1836 40.663 46.3846 40.7916 46.4852 40.8345C46.8729 41.0059 47.1745 40.9345 47.5478 41.1202C47.8063 41.2488 48.0792 41.7203 48.4095 41.7917C49.1849 41.9632 49.3573 41.3917 49.745 41.306C50.3051 41.1917 50.6354 41.4774 51.2816 41.306C51.497 41.2488 51.6119 41.0059 51.7555 40.9345C52.1289 40.7487 52.4879 40.7202 52.7176 40.8345C52.7176 40.8345 52.9618 40.9488 52.6171 41.1202C52.4161 41.2345 52.2581 41.2345 52.0427 41.3345C51.8991 41.406 51.7842 41.606 51.7555 41.6346C51.6837 41.7632 51.6406 41.9632 51.6406 41.9775C51.698 42.0918 51.7842 42.1489 51.8416 42.1775C52.5022 42.4061 53.1915 41.9775 53.766 41.8918C54.1824 41.8203 55.3743 41.8918 55.719 42.1489C55.719 42.1489 56.0349 42.2061 55.8339 42.7919C55.7046 43.1348 55.1589 43.392 54.9579 43.6777C54.843 43.8492 54.6994 44.1635 54.5845 44.3207C54.3835 44.5779 54.3548 44.5779 54.1393 44.8065L53.9957 45.0065C53.9096 45.2494 52.9331 46.0781 52.7607 46.3495C52.6458 46.521 52.6028 46.6924 52.4879 46.8639C52.3155 47.1068 52.1863 47.1497 52.1001 47.3068C51.8129 47.7069 51.2672 48.5213 50.822 48.7356C50.621 48.8213 50.3338 48.7356 50.0466 48.6784C49.8599 48.6213 49.6445 48.2784 49.4722 48.1927C48.7972 47.8926 48.0505 47.9783 47.4617 47.6212C47.1745 47.4497 46.9016 46.9353 46.6862 46.6639C46.5426 46.4781 46.4134 46.1638 46.2123 46.0781C45.8677 45.9638 45.0347 46.0781 44.8768 46.3638C44.5608 46.9639 45.3794 48.507 45.4512 49.1357C45.4943 49.6786 45.2501 49.9215 45.4512 50.3644C45.5374 50.593 45.8964 50.6502 46.0256 50.8502C46.5426 51.6646 46.0974 52.8076 46.2123 53.8935C46.2554 54.2364 46.4564 54.6507 46.399 55.1365C46.3128 55.8938 45.3363 56.551 45.7384 57.7083C45.7384 57.7512 45.9395 57.8941 45.9538 57.9083C46.1118 57.9798 46.3415 57.9512 46.5139 57.9083C46.8298 57.794 47.1457 57.1654 47.476 56.9511C47.5048 56.9082 47.6196 56.8511 47.6771 56.8511C47.7202 56.7939 47.8063 56.7796 47.8494 56.751C47.993 56.651 48.0505 56.6367 48.1366 56.4653C48.2659 56.151 48.2228 55.8509 48.3233 55.408C48.4238 55.0508 48.7541 54.3936 48.8116 53.9792C48.9265 52.8076 48.0792 50.5359 48.6823 50.1501C48.9121 50.0072 49.1419 49.7357 49.544 49.6643C49.7163 49.6214 50.3051 49.7929 50.5492 49.7929C50.2333 50.5216 51.3821 52.4361 51.2959 53.4791C51.0662 56.0509 49.386 57.4654 47.9356 58.8371C47.7776 58.9942 47.9069 59.18 48.0361 59.3085C48.3233 59.58 49.027 59.4657 49.386 59.4086C49.9173 59.2943 50.1471 59.0657 50.5348 58.9371C50.6784 58.8799 50.8508 58.9656 51.0087 58.9371C51.4108 58.8228 51.7411 58.2941 51.9709 57.9655C51.9709 57.9655 52.4448 57.4654 52.531 58.1227V58.1655C52.531 58.7799 52.4304 59.4657 52.531 60.0658C52.6458 60.7802 53.9527 62.9376 54.642 63.0234C56.236 63.252 54.5989 61.2517 54.5414 61.1088C54.2829 60.5087 54.0245 59.4229 54.0675 58.637C54.0675 58.3513 54.326 57.7512 54.3547 57.4797C54.3691 57.3511 54.2973 57.0225 54.3547 56.9225C54.484 56.6653 55.3313 56.5796 55.5036 56.251C55.5467 56.151 55.4749 55.9795 55.5036 55.8795C55.5467 55.6509 55.7046 55.2222 55.8913 55.0222C56.0062 54.8793 56.1642 54.7936 56.3652 55.0222C56.5376 55.208 56.5806 55.6366 56.8535 55.9366L57.0833 56.1938C57.3705 56.3796 57.83 56.1367 57.7008 56.1652C58.0023 56.0795 57.9593 55.7795 58.0885 55.6795C58.1029 55.6652 58.2752 55.5937 58.2752 55.5937C58.9645 54.8793 57.4279 54.2364 57.4136 53.5792C57.4136 52.8505 57.5859 52.0075 57.3274 51.1931C57.2699 50.9931 56.8966 50.7073 56.8391 50.5216C56.7386 50.0644 56.9827 49.5786 57.0258 49.2785C57.1407 48.6642 56.9253 47.7355 57.1263 47.464C57.2412 47.3211 57.4279 47.2068 57.7869 47.264C58.0311 47.3068 58.189 47.7069 58.3613 47.8355C58.9932 48.3355 59.7112 48.6213 60.7596 48.4927C60.8888 48.4927 60.9893 48.2927 61.0181 48.2355C61.0899 48.0498 61.0755 47.8069 60.9462 47.6354C60.5729 47.1354 59.1081 46.7496 59.0363 46.4924C58.9789 46.3067 58.7491 46.0495 59.0076 45.9352C58.864 46.0209 59.9123 45.9066 60.2857 45.8209C60.7739 45.7066 60.8026 45.2351 61.1473 45.0636C61.6212 44.8207 62.3249 45.0351 62.5977 44.5921C62.7557 44.3064 62.6264 43.892 62.7844 43.6349C62.9711 43.292 63.5455 43.2348 63.8327 42.9633C63.9189 42.8919 63.8758 42.5919 63.8614 42.4918M25.332 64.7951C25.1454 64.595 25.3033 64.1807 25.648 64.0092C26.2942 63.7092 26.5527 64.0521 26.6963 64.2235C27.3138 65.1808 28.118 66.4239 28.7211 66.9239C28.1754 66.9811 26.1075 66.3524 25.332 64.7951ZM30.6024 74.4393C30.2721 74.4393 28.1324 72.6533 28.4483 71.5389C29.0801 72.0104 30.5018 72.9962 30.6742 72.9677C30.8609 73.082 31.0188 74.3107 30.588 74.4393M33.0724 74.4393C32.7995 74.1964 30.7173 72.0247 31.2486 71.0102C31.823 71.5817 33.4027 73.0248 33.9627 73.1677C34.1207 73.582 34.092 74.7108 33.0867 74.4393M33.3022 66.1381C33.6612 66.681 34.1638 66.9954 34.1351 68.1527C34.1063 68.4384 34.1925 68.4956 34.4366 68.467C34.652 68.4099 34.5372 67.0668 35.1834 67.1525C35.7435 67.2383 35.3557 67.9955 35.6429 68.8671C35.7435 69.1814 36.3753 70.2816 36.203 72.1818C36.1886 72.6676 35.2552 73.3106 34.7239 72.9391C34.293 72.6676 34.293 72.3533 34.0345 70.3387C33.934 69.1528 32.4836 68.7528 31.8661 68.2098C31.2486 67.7526 31.6076 67.5383 31.4927 66.7239C31.1337 65.538 29.7407 64.9808 30.2146 64.195C30.3582 63.9949 30.5018 63.8092 30.9327 63.9807C30.9614 64.5665 32.3687 65.0237 33.3165 66.1524M23.4364 62.409C23.5801 62.3518 24.1976 62.0518 24.3555 61.9947C25.0161 61.766 25.3608 62.109 25.9639 61.7803C26.1075 61.6946 26.2655 61.466 26.3947 61.3517C26.5096 61.2517 26.7107 61.266 26.8543 61.166C27.1846 60.9374 27.8164 60.2373 28.2329 60.1515C28.477 60.1087 28.477 60.1658 28.6063 60.1801C28.6063 60.2087 28.7929 60.1372 28.7355 60.5087C28.6206 61.2231 30.2864 60.5087 31.3922 60.7659C32.139 60.9374 32.857 61.1945 32.6703 61.666C32.699 61.6089 32.4549 61.8089 32.3974 61.8518C31.8805 62.2233 31.4927 61.8232 31.2199 61.7803C30.7747 61.7232 30.4588 61.8661 29.9992 61.8089L29.4535 61.6232C29.1089 61.6089 28.6063 61.7803 28.3334 61.8089C27.8308 61.8518 27.5866 61.666 27.1271 61.7232C26.9117 61.7518 26.5527 62.0375 26.3947 62.0947C26.2511 62.1518 26.0788 62.1947 25.9352 62.2518C25.8347 62.2804 25.5905 62.409 25.4756 62.4662C25.0161 62.6948 24.7433 62.6948 24.1832 62.8376L23.8529 62.9234C23.1492 63.0234 23.221 62.5376 23.4364 62.409ZM21.7275 65.138C22.4886 64.9665 22.7041 65.1523 23.0631 66.0095C23.3359 66.5096 23.896 67.1811 24.1114 67.5097C23.2354 67.6097 21.8568 66.4239 21.469 65.7809C21.2249 65.4666 21.5983 65.2094 21.7275 65.138ZM12.1203 61.5517C13.1112 61.2803 13.9872 60.9945 14.3606 60.7802C14.4898 60.7802 14.6191 60.7802 14.7627 60.7659C14.8201 61.0231 14.9206 61.2946 15.0786 61.5517C15.1073 61.6089 15.1504 61.6517 15.1791 61.7089C14.576 61.7089 13.3697 61.6517 12.1347 61.5517M14.2026 63.2806C14.7196 62.9805 15.2078 62.6519 15.6674 62.309C15.8828 62.5519 16.1126 62.7805 16.371 63.0091C16.0982 63.0805 15.2653 63.1805 14.217 63.2948L14.2026 63.2806Z" fill="#8C0A28"/>
<path d="M23.4933 62.4805C23.4367 62.5087 23.4509 62.5087 23.4933 62.4805V62.4805Z" fill="#8C0A28"/>
</g>
<defs>
<clipPath id="clip0_273_164">
<rect width="74" height="99" fill="white"/>
</clipPath>
</defs>
</svg>
